# xmcd
#
# Track frame offsets: 
#        182
#        14500
#        32897
#        47260
#        64517
#        77875
#        90922
#        109042
#        127405
#        144487
#        157600
#
# Disc length: 2318 seconds
#
# Revision: 4
# Processed by: cddbd v1.5PL3 Copyright (c) Steve Scherf et al.
# Submitted via: ExactAudioCopy v0.95a5
#
DISCID=82090c0b
DTITLE=John Denver - Greatest Hits
DYEAR=1993
DGENRE=Country
TTITLE0=How can I leave you again
TTITLE1=Some days are diamonds
TTITLE2=Shanghai breezes
TTITLE3=Seasons of the heart
TTITLE4=Perhaps love (with Placido Domingo)
TTITLE5=Love again (with Sylvie Vartan)
TTITLE6=Dancing with the mountains
TTITLE7=Wild Montana skies
TTITLE8=I want to live
TTITLE9=The gold and beyond
TTITLE10=Autograph
EXTD=
EXTT0=
EXTT1=
EXTT2=
EXTT3=
EXTT4=
EXTT5=
EXTT6=
EXTT7=
EXTT8=
EXTT9=
EXTT10=
PLAYORDER=
